<svg width="146" height="136" viewBox="0 0 146 136" fill="none" xmlns="http://www.w3.org/2000/svg">
<path d="M17.2154 42.8158L3 28.4868L58.5692 2L72.7846 15.4605M17.2154 42.8158L72.7846 15.4605M17.2154 42.8158L3 57.5789L17.6094 64.7653M17.2154 42.8158L72.7846 69.3026M72.7846 15.4605L127.923 42.8158M72.7846 15.4605L87.4308 2L143 28.4868L127.923 42.8158M72.7846 69.3026L56.8462 84.0658L17.6094 64.7653M72.7846 69.3026L127.923 42.8158M72.7846 69.3026L87.4308 84.0658L127.923 64.7653M72.7846 69.3026V134M127.923 42.8158L143 57.5789L127.923 64.7653M72.7846 134L127.923 106.645V64.7653M72.7846 134L17.2154 106.645L17.6094 64.7653" stroke="white" stroke-width="3"/>
</svg>
