<svg width="298" height="66" viewBox="0 0 298 66" fill="none" xmlns="http://www.w3.org/2000/svg">
<g clip-path="url(#clip0_201_461)">
<path d="M26.2847 37.5833H15.9707L7.2091 22L15.9707 6.41667H33.4848L42.2375 22L29.8803 44L42.2375 66H66.9697L79.3269 44L66.9697 22H56.6557L53.0868 28.4167H63.3473L72.1089 44L63.3473 59.5833H45.842L37.0894 44L49.4555 22L37.0894 0H12.3661L0 22L12.3661 44H22.6801L26.2847 37.5833Z" fill="black"/>
</g>
<g clip-path="url(#clip1_201_461)">
<path d="M100.74 53.7396V11.793H106.281V29.393C106.983 27.6179 108.238 26.1319 109.85 25.1671C111.582 24.1642 113.545 23.6606 115.533 23.7096C116.985 23.6488 118.433 23.9114 119.778 24.4794C121.122 25.0475 122.331 25.9075 123.322 27.0005C125.345 29.3554 126.4 32.4243 126.266 35.5621V53.7396H120.726V36.6713C120.82 34.6023 120.158 32.5717 118.87 30.9788C118.265 30.2664 117.513 29.7017 116.669 29.3258C115.824 28.95 114.909 28.7725 113.989 28.8063C112.942 28.7787 111.901 28.9905 110.943 29.4265C109.985 29.8624 109.133 30.5116 108.449 31.3271C106.966 33.1093 106.191 35.4008 106.281 37.7438V53.7396H100.74Z" fill="black"/>
<path d="M155.272 44.115H160.813C160.344 47.0594 158.764 49.6948 156.414 51.4483C153.817 53.3508 150.68 54.3176 147.492 54.1983C145.538 54.2712 143.591 53.9055 141.788 53.1266C139.985 52.3477 138.37 51.1744 137.053 49.6883C134.404 46.7162 132.972 42.8091 133.056 38.78C132.931 34.8406 134.256 30.9977 136.768 28.0183C139.248 25.14 142.674 23.71 146.939 23.71C151.204 23.71 154.541 25.0483 156.95 27.7525C159.373 30.4665 160.673 34.0439 160.572 37.7258C160.575 38.47 160.536 39.2137 160.456 39.9533H138.481C138.593 42.4918 139.587 44.9049 141.282 46.755C142.091 47.609 143.064 48.28 144.139 48.7252C145.215 49.1703 146.369 49.3797 147.528 49.34C151.852 49.3644 154.433 47.6227 155.272 44.115ZM146.939 28.2933C142.311 28.2933 139.551 30.7927 138.659 35.7916H154.987C154.96 34.7496 154.729 33.7238 154.307 32.7759C153.885 31.828 153.28 30.9775 152.531 30.2755C151.781 29.5734 150.9 29.0344 149.942 28.6906C148.985 28.3468 147.969 28.2054 146.957 28.275L146.939 28.2933Z" fill="black"/>
<path d="M189.872 53.7396H183.993L176.453 42.648L168.861 53.7396H162.981L173.429 38.248L163.837 24.168H169.949L176.453 33.793L182.904 24.168H189.016L179.424 38.248L189.872 53.7396Z" fill="black"/>
<path d="M195.814 53.7396V11.793H201.355V53.7396H195.814Z" fill="black"/>
<path d="M220.939 23.7094C224.633 23.7094 227.607 24.7178 229.861 26.7344C230.978 27.7136 231.865 28.9396 232.455 30.3207C233.045 31.7018 233.324 33.2021 233.27 34.7094V53.7761H227.729V48.9269C226.999 50.5868 225.74 51.9415 224.16 52.7678C222.383 53.7514 220.388 54.2471 218.37 54.2069C215.79 54.3356 213.258 53.4544 211.285 51.7411C210.41 50.9376 209.716 49.9466 209.254 48.838C208.792 47.7293 208.571 46.53 208.609 45.3244C208.562 44.0392 208.812 42.7609 209.34 41.5944C209.867 40.428 210.656 39.4067 211.642 38.6144C213.659 36.9461 216.38 36.1211 219.806 36.1211H225.802C227.096 36.1211 227.738 35.5344 227.738 34.3611C227.772 33.5313 227.623 32.7044 227.301 31.9424C226.98 31.1803 226.495 30.503 225.882 29.9611C224.435 28.7871 222.619 28.1999 220.779 28.3111C218.995 28.2559 217.247 28.8392 215.836 29.9611C215.218 30.4113 214.706 30.9969 214.336 31.6754C213.965 32.3538 213.746 33.1084 213.694 33.8844H208.555C208.657 32.4637 209.051 31.0814 209.711 29.8284C210.371 28.5755 211.281 27.4804 212.383 26.6153C214.817 24.6486 217.844 23.6204 220.939 23.7094ZM219.449 49.6969C220.571 49.7629 221.694 49.5829 222.743 49.1688C223.792 48.7547 224.744 48.1161 225.534 47.2953C227.061 45.5015 227.849 43.167 227.729 40.7869V40.0811H220.297C218.677 39.9914 217.077 40.4769 215.764 41.4561C215.212 41.8922 214.768 42.4572 214.47 43.1044C214.173 43.7516 214.029 44.4623 214.051 45.1778C214.036 45.8086 214.165 46.4344 214.429 47.0045C214.692 47.5745 215.083 48.0729 215.568 48.4594C216.679 49.3295 218.055 49.7649 219.449 49.6878V49.6969Z" fill="black"/>
<path d="M255.887 54.2071C254.024 54.2271 252.185 53.7737 250.534 52.8871C249.009 52.0994 247.734 50.8816 246.858 49.3763V53.7763H241.326V11.793H246.858V28.513C247.752 27.0138 249.038 25.8034 250.57 25.0205C252.242 24.1315 254.103 23.6812 255.986 23.7096C260.286 23.7096 263.656 25.1274 266.094 27.963C268.533 30.7985 269.749 34.4652 269.743 38.963C269.743 43.5035 268.527 47.1702 266.094 49.963C263.662 52.7557 260.259 54.1705 255.887 54.2071ZM248.848 46.4063C249.68 47.2935 250.678 47.9991 251.782 48.4811C252.885 48.9631 254.072 49.2115 255.272 49.2115C256.471 49.2115 257.658 48.9631 258.762 48.4811C259.866 47.9991 260.863 47.2935 261.696 46.4063C263.382 44.3208 264.248 41.6622 264.123 38.9538C264.248 36.2454 263.382 33.5868 261.696 31.5013C260.863 30.6141 259.866 29.9085 258.762 29.4265C257.658 28.9445 256.471 28.6961 255.272 28.6961C254.072 28.6961 252.885 28.9445 251.782 29.4265C250.678 29.9085 249.68 30.6141 248.848 31.5013C247.161 33.5868 246.295 36.2454 246.421 38.9538C246.295 41.6622 247.161 44.3208 248.848 46.4063Z" fill="black"/>
<path d="M286.374 54.2076C283.402 54.3436 280.482 53.3664 278.157 51.4576C277.119 50.5489 276.278 49.4269 275.688 48.1638C275.098 46.9007 274.772 45.5246 274.731 44.1242H279.924C279.962 44.8808 280.154 45.6208 280.487 46.2965C280.821 46.9722 281.288 47.5687 281.86 48.0476C283.156 49.0419 284.75 49.5411 286.365 49.4592C287.757 49.5192 289.13 49.1175 290.282 48.3134C290.761 47.9764 291.15 47.521 291.413 46.9893C291.675 46.4575 291.804 45.8664 291.786 45.2704C291.768 44.6743 291.605 44.0924 291.311 43.5781C291.017 43.0639 290.602 42.6339 290.104 42.3276C288.847 41.6008 287.46 41.1425 286.026 40.9801C284.429 40.7692 282.823 40.4759 281.226 40.0634C279.648 39.7038 278.221 38.8407 277.149 37.5976C275.939 36.0726 275.337 34.1337 275.463 32.1709C275.43 30.9853 275.672 29.8088 276.169 28.7379C276.665 27.6671 277.402 26.7325 278.318 26.0109C280.441 24.3917 283.046 23.5786 285.687 23.7101C288.544 23.5829 291.353 24.4878 293.628 26.2676C294.625 27.0686 295.438 28.0848 296.01 29.2443C296.582 30.4038 296.899 31.6783 296.938 32.9776H291.746C291.68 32.2598 291.455 31.567 291.088 30.9522C290.722 30.3373 290.223 29.8167 289.631 29.4301C288.458 28.6453 287.087 28.2281 285.687 28.2292C284.418 28.1726 283.165 28.5427 282.119 29.2834C281.69 29.5927 281.342 30.005 281.104 30.4843C280.866 30.9636 280.746 31.4954 280.753 32.0334C280.721 32.6305 280.863 33.2241 281.162 33.7372C281.461 34.2504 281.903 34.6595 282.431 34.9117C283.723 35.5441 285.117 35.9293 286.544 36.0484C288.177 36.2343 289.797 36.519 291.398 36.9009C293.013 37.2946 294.458 38.2221 295.511 39.5409C296.727 41.2109 297.324 43.2711 297.197 45.3526C297.233 46.5848 296.984 47.8082 296.473 48.9232C295.961 50.0382 295.2 51.0134 294.253 51.7692C292.272 53.4009 289.646 54.2137 286.374 54.2076Z" fill="black"/>
</g>
<defs>
<clipPath id="clip0_201_461">
<rect width="79.3269" height="66" fill="white"/>
</clipPath>
<clipPath id="clip1_201_461">
<rect width="196.43" height="42.4142" fill="white" transform="translate(100.74 11.793)"/>
</clipPath>
</defs>
</svg>
