<svg width="125" height="150" viewBox="0 0 125 150" fill="none" xmlns="http://www.w3.org/2000/svg">
<path d="M53 86C53 86 33.5337 90.2792 21.7042 84.3767C7.13334 77.1064 0.625017 64.3811 2.24118 48.7822C3.83641 33.3853 13.1615 23.9397 28.0165 17.6997C38.7575 13.1877 58 15.6944 58 15.6944M61 83.9998C61 83.9998 94.7667 68.3269 98.5 82.4998C101.397 93.4985 82.2832 95.1294 82 106.5C81.5366 125.101 124 129 124 129M65.5 17L99.5 25.5M57.2307 149L49.554 22.0011C49.554 22.0011 45.9276 1.81189 57.2307 2.00132C68.4646 2.1896 64.2094 22.0011 64.2094 22.0011L57.2307 149ZM55.9999 11C54.4257 11 54.3445 12.9639 53.9999 14.5C53.4187 17.0915 53.3441 21 55.9999 21C58.6558 21 58.5812 17.0915 57.9999 14.5C57.6554 12.9639 57.5742 11 55.9999 11Z" stroke="white" stroke-width="3"/>
</svg>
