<svg width="215" height="31" viewBox="0 0 215 31" fill="none" xmlns="http://www.w3.org/2000/svg">
<path d="M47.6691 23.0651H51.0756V17.8413H53.9392C57.6446 17.8413 59.8002 15.6307 59.8002 12.413C59.8002 9.21111 57.6839 6.95325 54.0257 6.95325H47.6691V23.0651ZM51.0756 15.1115V9.73821H53.3728C55.3395 9.73821 56.2915 10.8081 56.2915 12.413C56.2915 14.0101 55.3395 15.1115 53.3885 15.1115H51.0756Z" fill="white"/>
<path d="M62.0128 23.0651H65.4193V17.3536H67.9053L70.9577 23.0651H74.7182L71.296 16.8029C73.1291 16.0162 74.1439 14.4191 74.1439 12.2164C74.1439 9.01443 72.0277 6.95325 68.3695 6.95325H62.0128V23.0651ZM65.4193 14.6158V9.73821H67.7165C69.6833 9.73821 70.6352 10.6115 70.6352 12.2164C70.6352 13.8134 69.6833 14.6158 67.7322 14.6158H65.4193Z" fill="white"/>
<path d="M91.3572 15.0092C91.3572 9.73821 88.0845 6.73297 83.8126 6.73297C79.5172 6.73297 76.2681 9.73821 76.2681 15.0092C76.2681 20.2565 79.5172 23.2854 83.8126 23.2854C88.0845 23.2854 91.3572 20.2802 91.3572 15.0092ZM87.9035 15.0092C87.9035 18.4235 86.2829 20.2723 83.8126 20.2723C81.3345 20.2723 79.7217 18.4235 79.7217 15.0092C79.7217 11.5949 81.3345 9.74608 83.8126 9.74608C86.2829 9.74608 87.9035 11.5949 87.9035 15.0092Z" fill="white"/>
<path d="M92.553 9.76181H97.4857V23.0651H100.853V9.76181H105.785V6.95325H92.553V9.76181Z" fill="white"/>
<path d="M122.057 15.0092C122.057 9.73821 118.784 6.73297 114.512 6.73297C110.217 6.73297 106.968 9.73821 106.968 15.0092C106.968 20.2565 110.217 23.2854 114.512 23.2854C118.784 23.2854 122.057 20.2802 122.057 15.0092ZM118.603 15.0092C118.603 18.4235 116.982 20.2723 114.512 20.2723C112.034 20.2723 110.421 18.4235 110.421 15.0092C110.421 11.5949 112.034 9.74608 114.512 9.74608C116.982 9.74608 118.603 11.5949 118.603 15.0092Z" fill="white"/>
<path d="M124.25 8.68402H129.316V23.0651H131.267V8.68402H136.334V6.95325H124.25V8.68402Z" fill="white"/>
<path d="M137.96 6.95325L143.782 16.4253V23.0651H145.733V16.4253L151.554 6.95325H149.32L144.852 14.4742H144.663L140.194 6.95325H137.96Z" fill="white"/>
<path d="M154.078 23.0651H156.029V17.1805H159.553C163.306 17.1805 164.997 14.899 164.997 12.0511C164.997 9.20325 163.306 6.95325 159.522 6.95325H154.078V23.0651ZM156.029 15.4497V8.68402H159.459C162.079 8.68402 163.078 10.1158 163.078 12.0511C163.078 13.9865 162.079 15.4497 159.49 15.4497H156.029Z" fill="white"/>
<path d="M170.091 6.95325H168.14V23.0651H170.091V6.95325Z" fill="white"/>
<path d="M186.968 11.9882C186.37 8.68402 183.727 6.73297 180.486 6.73297C176.363 6.73297 173.374 9.91129 173.374 15.0092C173.374 20.1071 176.363 23.2854 180.486 23.2854C183.727 23.2854 186.37 21.3343 186.968 18.0302H185.017C184.545 20.2644 182.626 21.4602 180.486 21.4602C177.559 21.4602 175.262 19.1945 175.262 15.0092C175.262 10.8239 177.559 8.55814 180.486 8.55814C182.626 8.55814 184.545 9.75395 185.017 11.9882H186.968Z" fill="white"/>
<path d="M190.782 23.0651L192.402 18.5022H198.916L200.537 23.0651H202.583L196.666 6.95325H194.652L188.736 23.0651H190.782ZM193.016 16.7714L195.597 9.5022H195.722L198.303 16.7714H193.016Z" fill="white"/>
<path d="M205.092 23.0651H214.533V21.3343H207.043V6.95325H205.092V23.0651Z" fill="white"/>
<path fill-rule="evenodd" clip-rule="evenodd" d="M8.7864 0L0 15.2185L8.7864 30.437H26.3592L35.1456 15.2185L26.3592 0H8.7864ZM11.3284 4.45872L11.3445 4.43076H11.3763C11.3603 4.44005 11.3443 4.44937 11.3284 4.45872ZM17.6957 4.95227C23.4417 4.95227 28.0998 9.6103 28.0998 15.3563C28.0998 21.1022 23.4417 25.7603 17.6957 25.7603C11.9498 25.7603 7.29175 21.1022 7.29175 15.3563C7.29175 9.6103 11.9498 4.95227 17.6957 4.95227Z" fill="white"/>
</svg>
